#N canvas 75 101 721 517 10;
#X obj -274 -3 adc~;
#X obj -111 57 sigmund~;
#X floatatom -111 114 10 0 0 0 - - -;
#X obj -457 128 aubiopitch~;
#X floatatom -457 188 5 0 0 0 - - -;
#X floatatom -121 202 5 0 0 0 - - -;
#X floatatom -84 202 5 0 0 0 - - -;
#X floatatom -43 202 5 0 0 0 - - -;
#X obj -121 262 pack f f f;
#X floatatom -309 365 0 0 0 0 - - -;
#X msg -272 277 disconnect;
#X obj -309 322 netsend;
#X msg -121 294 send \$1 \$2 \$3;
#X obj -352 129 aubiotempo~ 0.3;
#X obj -352 178 bng 15 250 50 0 empty empty empty 17 7 0 10 -262144
-1 -1;
#X obj -111 140 expr if($f1 < 0 \, 0 \, $f1) \;;
#X obj -284 102 dac~;
#X obj -424 50 aubio;
#X text -442 14 load the aubio external;
#X floatatom 64 143 5 0 0 0 - - -;
#X text -153 84 get the input (hz) to midi value;
#X text 66 118 get the envelope (amplitude);
#X text -448 161 get the freq. in Hz;
#X msg -309 244 connect localhost 9050;
#X connect 0 0 1 0;
#X connect 0 0 3 0;
#X connect 0 0 13 0;
#X connect 0 0 16 0;
#X connect 0 0 16 1;
#X connect 1 0 2 0;
#X connect 1 1 19 0;
#X connect 2 0 15 0;
#X connect 3 0 4 0;
#X connect 4 0 5 0;
#X connect 5 0 8 0;
#X connect 6 0 8 1;
#X connect 7 0 8 2;
#X connect 8 0 12 0;
#X connect 10 0 11 0;
#X connect 11 0 9 0;
#X connect 12 0 11 0;
#X connect 13 0 14 0;
#X connect 15 0 7 0;
#X connect 19 0 6 0;
#X connect 23 0 11 0;
