#N canvas 812 288 1265 720 12;
#X obj 38 85 gemwin;
#X msg 38 -43 create;
#X msg 50 -16 destroy;
#X obj 15 24 tgl 15 0 empty empty empty 17 7 0 10 -262144 -1 -1 0 1
;
#X obj 244 -21 gemhead;
#X obj 244 354 pix_image;
#X obj 244 513 pix_texture;
#X msg 280 322 open \$1;
#X obj 280 293 openpanel;
#X obj 280 271 bng 15 250 50 0 empty empty empty 17 7 0 10 -262144
-1 -1;
#X obj 318 223 rotateXYZ;
#X floatatom 341 184 5 0 0 0 - - -;
#X obj 244 406 alpha;
#X floatatom 288 541 5 0 0 0 - - -;
#X obj 441 326 vsl 15 128 0 1 0 0 empty empty empty 0 -9 0 10 -258113
-1 -1 0 1;
#X obj 464 326 vsl 15 128 0 1 0 0 empty empty empty 0 -9 0 10 -4034
-1 -1 772 1;
#X obj 486 326 vsl 15 128 0 1 0 0 empty empty empty 0 -9 0 10 -4160
-1 -1 0 1;
#X obj 244 457 colorRGB;
#X obj 297 385 hsl 128 15 0 1 0 0 empty empty empty -2 -8 0 10 -262144
-1 -1 0 1;
#X obj 341 149 counter;
#X msg 399 120 360;
#X obj 341 64 tgl 15 0 empty empty empty 17 7 0 10 -262144 -1 -1 0
1;
#X msg 63 16 title PlayGEM;
#X obj 341 90 metro 50;
#X obj 244 31 separator;
#X obj 318 31 separator;
#X obj 659 347 pix_image;
#X obj 660 506 pix_texture;
#X msg 695 315 open \$1;
#X obj 695 286 openpanel;
#X obj 695 264 bng 15 250 50 0 empty empty empty 17 7 0 10 -262144
-1 -1;
#X obj 659 399 alpha;
#X obj 581 319 vsl 15 128 0 1 0 0 empty empty empty 0 -9 0 10 -258113
-1 -1 0 1;
#X obj 604 319 vsl 15 128 0 1 0 0 empty empty empty 0 -9 0 10 -4034
-1 -1 772 1;
#X obj 626 319 vsl 15 128 0 1 0 0 empty empty empty 0 -9 0 10 -4160
-1 -1 0 1;
#X obj 660 450 colorRGB;
#X obj 712 378 hsl 128 15 0 1 0 0 empty empty empty -2 -8 0 10 -262144
-1 -1 0 1;
#X obj 660 567 cube 1;
#X msg 364 121 0;
#X obj 123 215 print nr;
#X obj 28 221 unpack f f f;
#X obj 81 302 / 100;
#X obj 28 302 / 1000;
#X obj 125 302 / 100;
#X obj 244 567 sphere 2.5 60;
#X floatatom 28 328 5 0 0 0 - - -;
#X floatatom 81 328 5 0 0 0 - - -;
#X floatatom 125 327 5 0 0 0 - - -;
#X obj 28 351 s R;
#X obj 81 352 s G;
#X obj 125 352 s B;
#X obj 429 283 r R;
#X obj 459 283 r G;
#X obj 488 283 r B;
#X obj 567 277 r R;
#X obj 597 277 r G;
#X obj 626 277 r B;
#X msg 71 50 dimen 400 400;
#X msg 726 548 3;
#X obj 801 279 pix_texture;
#X obj 880 95 openpanel;
#X obj 873 68 bng 15 250 50 0 empty empty empty 17 7 0 10 -262144 -1
-1;
#X obj 807 135 tgl 15 0 empty empty empty 17 7 0 10 -262144 -1 -1 0
1;
#X msg 801 161 auto \$1;
#X obj 892 210 bng 15 250 50 0 empty empty empty 17 7 0 10 -262144
-1 -1;
#X floatatom 909 287 5 0 0 0 - - -;
#X msg 881 139 open \$1;
#X msg 869 179 0;
#X obj 707 107 rotateXYZ;
#X floatatom 779 63 5 0 0 0 - - -;
#X floatatom 726 58 5 0 0 0 - - -;
#X obj 395 32 separator;
#X obj 801 310 square 4;
#X msg 679 536 1.4;
#X obj 38 85 gemwin;
#X msg 38 -43 create;
#X msg 50 -16 destroy;
#X obj 15 24 tgl 15 0 empty empty empty 17 7 0 10 -262144 -1 -1 0 1
;
#X obj 244 -21 gemhead;
#X obj 244 354 pix_image;
#X obj 244 513 pix_texture;
#X msg 280 322 open \$1;
#X obj 280 293 openpanel;
#X obj 280 271 bng 15 250 50 0 empty empty empty 17 7 0 10 -262144
-1 -1;
#X obj 318 223 rotateXYZ;
#X floatatom 341 184 5 0 0 0 - - -;
#X obj 244 406 alpha;
#X floatatom 288 541 5 0 0 0 - - -;
#X obj 441 326 vsl 15 128 0 1 0 0 empty empty empty 0 -9 0 10 -258113
-1 -1 0 1;
#X obj 464 326 vsl 15 128 0 1 0 0 empty empty empty 0 -9 0 10 -4034
-1 -1 772 1;
#X obj 486 326 vsl 15 128 0 1 0 0 empty empty empty 0 -9 0 10 -4160
-1 -1 0 1;
#X obj 244 457 colorRGB;
#X obj 297 385 hsl 128 15 0 1 0 0 empty empty empty -2 -8 0 10 -262144
-1 -1 0 1;
#X obj 341 149 counter;
#X msg 399 120 360;
#X obj 341 64 tgl 15 0 empty empty empty 17 7 0 10 -262144 -1 -1 0
1;
#X msg 63 16 title PlayGEM;
#X obj 341 90 metro 50;
#X obj 244 31 separator;
#X obj 318 31 separator;
#X obj 659 347 pix_image;
#X obj 660 506 pix_texture;
#X msg 695 315 open \$1;
#X obj 695 286 openpanel;
#X obj 695 264 bng 15 250 50 0 empty empty empty 17 7 0 10 -262144
-1 -1;
#X obj 659 399 alpha;
#X obj 581 319 vsl 15 128 0 1 0 0 empty empty empty 0 -9 0 10 -258113
-1 -1 0 1;
#X obj 604 319 vsl 15 128 0 1 0 0 empty empty empty 0 -9 0 10 -4034
-1 -1 772 1;
#X obj 626 319 vsl 15 128 0 1 0 0 empty empty empty 0 -9 0 10 -4160
-1 -1 0 1;
#X obj 660 450 colorRGB;
#X obj 712 378 hsl 128 15 0 1 0 0 empty empty empty -2 -8 0 10 -262144
-1 -1 0 1;
#X obj 660 567 cube 1;
#X msg 364 121 0;
#X obj 123 215 print nr;
#X obj 28 221 unpack f f f;
#X obj 81 302 / 100;
#X obj 28 302 / 1000;
#X obj 125 302 / 100;
#X obj 244 567 sphere 2.5 60;
#X floatatom 28 328 5 0 0 0 - - -;
#X floatatom 81 328 5 0 0 0 - - -;
#X floatatom 125 327 5 0 0 0 - - -;
#X obj 28 351 s R;
#X obj 81 352 s G;
#X obj 125 352 s B;
#X obj 429 283 r R;
#X obj 459 283 r G;
#X obj 488 283 r B;
#X obj 567 277 r R;
#X obj 597 277 r G;
#X obj 626 277 r B;
#X msg 71 50 dimen 400 400;
#X msg 726 548 3;
#X obj 801 279 pix_texture;
#X obj 880 95 openpanel;
#X obj 873 68 bng 15 250 50 0 empty empty empty 17 7 0 10 -262144 -1
-1;
#X obj 800 211 pix_film;
#X obj 807 135 tgl 15 0 empty empty empty 17 7 0 10 -262144 -1 -1 0
1;
#X msg 801 161 auto \$1;
#X obj 892 210 bng 15 250 50 0 empty empty empty 17 7 0 10 -262144
-1 -1;
#X floatatom 909 287 5 0 0 0 - - -;
#X msg 881 139 open \$1;
#X msg 869 179 0;
#X obj 707 107 rotateXYZ;
#X floatatom 779 63 5 0 0 0 - - -;
#X floatatom 726 58 5 0 0 0 - - -;
#X obj 395 32 separator;
#X obj 801 310 square 4;
#X msg 679 536 1.4;
#X obj 29 156 netreceive 9050;
#X floatatom 68 263 5 0 0 0 - - -;
#X floatatom 28 263 5 0 0 0 - - -;
#X floatatom 109 263 5 0 0 0 - - -;
#X connect 1 0 0 0;
#X connect 2 0 0 0;
#X connect 3 0 0 0;
#X connect 4 0 25 0;
#X connect 4 0 24 0;
#X connect 4 0 71 0;
#X connect 5 0 12 0;
#X connect 6 0 44 0;
#X connect 7 0 5 0;
#X connect 8 0 7 0;
#X connect 9 0 8 0;
#X connect 10 0 26 0;
#X connect 11 0 10 2;
#X connect 11 0 10 3;
#X connect 11 0 10 1;
#X connect 12 0 17 0;
#X connect 13 0 44 1;
#X connect 14 0 17 1;
#X connect 15 0 17 2;
#X connect 16 0 17 3;
#X connect 17 0 6 0;
#X connect 18 0 12 1;
#X connect 19 0 11 0;
#X connect 20 0 19 4;
#X connect 21 0 23 0;
#X connect 22 0 0 0;
#X connect 23 0 19 0;
#X connect 24 0 5 0;
#X connect 25 0 10 0;
#X connect 26 0 31 0;
#X connect 27 0 37 0;
#X connect 28 0 26 0;
#X connect 29 0 28 0;
#X connect 30 0 29 0;
#X connect 31 0 35 0;
#X connect 32 0 35 1;
#X connect 33 0 35 2;
#X connect 34 0 35 3;
#X connect 35 0 27 0;
#X connect 36 0 31 1;
#X connect 38 0 19 2;
#X connect 40 0 151 0;
#X connect 40 1 150 0;
#X connect 40 2 152 0;
#X connect 41 0 46 0;
#X connect 42 0 45 0;
#X connect 43 0 47 0;
#X connect 45 0 48 0;
#X connect 46 0 49 0;
#X connect 47 0 50 0;
#X connect 51 0 14 0;
#X connect 52 0 15 0;
#X connect 53 0 16 0;
#X connect 54 0 32 0;
#X connect 55 0 33 0;
#X connect 56 0 34 0;
#X connect 57 0 0 0;
#X connect 58 0 37 1;
#X connect 59 0 72 0;
#X connect 60 0 66 0;
#X connect 61 0 60 0;
#X connect 62 0 63 0;
#X connect 64 0 67 0;
#X connect 65 0 72 1;
#X connect 69 0 68 2;
#X connect 70 0 68 1;
#X connect 71 0 68 0;
#X connect 73 0 37 1;
#X connect 75 0 74 0;
#X connect 76 0 74 0;
#X connect 77 0 74 0;
#X connect 78 0 99 0;
#X connect 78 0 98 0;
#X connect 78 0 146 0;
#X connect 79 0 86 0;
#X connect 80 0 118 0;
#X connect 81 0 79 0;
#X connect 82 0 81 0;
#X connect 83 0 82 0;
#X connect 84 0 100 0;
#X connect 85 0 84 2;
#X connect 85 0 84 3;
#X connect 85 0 84 1;
#X connect 86 0 91 0;
#X connect 87 0 118 1;
#X connect 88 0 91 1;
#X connect 89 0 91 2;
#X connect 90 0 91 3;
#X connect 91 0 80 0;
#X connect 92 0 86 1;
#X connect 93 0 85 0;
#X connect 94 0 93 4;
#X connect 95 0 97 0;
#X connect 96 0 74 0;
#X connect 97 0 93 0;
#X connect 98 0 79 0;
#X connect 99 0 84 0;
#X connect 100 0 105 0;
#X connect 101 0 111 0;
#X connect 102 0 100 0;
#X connect 103 0 102 0;
#X connect 104 0 103 0;
#X connect 105 0 109 0;
#X connect 106 0 109 1;
#X connect 107 0 109 2;
#X connect 108 0 109 3;
#X connect 109 0 101 0;
#X connect 110 0 105 1;
#X connect 112 0 93 2;
#X connect 115 0 120 0;
#X connect 116 0 119 0;
#X connect 117 0 121 0;
#X connect 119 0 122 0;
#X connect 120 0 123 0;
#X connect 121 0 124 0;
#X connect 125 0 88 0;
#X connect 126 0 89 0;
#X connect 127 0 90 0;
#X connect 128 0 106 0;
#X connect 129 0 107 0;
#X connect 130 0 108 0;
#X connect 131 0 74 0;
#X connect 132 0 111 1;
#X connect 133 0 147 0;
#X connect 134 0 141 0;
#X connect 135 0 134 0;
#X connect 136 0 59 0;
#X connect 136 2 139 0;
#X connect 137 0 138 0;
#X connect 138 0 136 0;
#X connect 139 0 142 0;
#X connect 140 0 147 1;
#X connect 141 0 136 0;
#X connect 142 0 136 1;
#X connect 143 0 136 0;
#X connect 144 0 143 2;
#X connect 145 0 143 1;
#X connect 146 0 143 0;
#X connect 148 0 111 1;
#X connect 149 0 40 0;
#X connect 149 0 39 0;
#X connect 150 0 41 0;
#X connect 151 0 42 0;
#X connect 152 0 43 0;
